# xmcd
#
# Track frame offsets:
#	150
#	17891
#	33864
#	47320
#	69647
#	89907
#	104908
#	120225
#	141739
#	163298
#	174478
#	193598
#
# Disc length: 2782 seconds
#
# Revision: 0
# Processed by: cddbd v1.5.2PL0 Copyright (c) Steve Scherf et al.
# Submitted via: EZCDAudioConverter 2.3.2.1
#
DISCID=af0adc0c
DTITLE=Varios artistas - 'The Blues magazine 14-Get your house a·rockin''
DYEAR=2014
DGENRE=Blues
TTITLE0=HENRY'S FUNERAL SHOE - Grown so angry
TTITLE1=GREYHOUNDS - Yeah yeah yeah
TTITLE2=Kenny Wayne SHEPHERD - The house is rockin' (cover S.R. VAUGHAN-D. Bra
TTITLE2=mhall)
TTITLE3=Jarekus  SINGLETON - I refuse to lose
TTITLE4=Thorbjorn RISAGER and The BLACK TORNADO - Through the tears
TTITLE5=John MAYALL - That's all right
TTITLE6=Jimmy 'Duck' HOLMES and Terry 'Harmonica' BEAN - Cheating and lying Blue
TTITLE6=s
TTITLE7=LONESOMESHACK - Wrecks
TTITLE8=Wily Bo WALKER - When the angels call your time
TTITLE9=Jack J HUTCHINSON Band - Get it back
TTITLE10=CARLOS and CARLITOS - Inevitability
TTITLE11=Bonnie MAC Band  - Get it right
EXTD=
EXTT0=
EXTT1=
EXTT2=
EXTT3=
EXTT4=
EXTT5=
EXTT6=
EXTT7=
EXTT8=
EXTT9=
EXTT10=
EXTT11=
PLAYORDER=
